# xmcd CD database file
#
# Track frame offsets:
#	150
#	19892
#	42446
#	62247
#
# Disc length: 1127 seconds
#
# Revision: 1
# Processed by: cddbd v1.5.2PL0 Copyright (c) Steve Scherf et al.
# Submitted via: CDex 1.70beta2
#
DISCID=32046504
DTITLE=シャーロック・シェリンフォード、譲崎ネロ、エルキュール・バートン、コーデリア・グラウカ - 雨上がりのミライ
DYEAR=2010
DGENRE=Game
TTITLE0=雨上がりのミライ
TTITLE1=聞こえなくてもありがとう
TTITLE2=雨上がりのミライ (off vocal)
TTITLE3=聞こえなくてもありがとう (off vocal)
EXTD=YEAR: 2010
EXTT0=
EXTT1=
EXTT2=
EXTT3=
PLAYORDER=
